<mxfile host="app.diagrams.net" modified="2021-11-19T19:09:44.012Z" agent="5.0 (Windows NT 10.0; Win64; x64) AppleWebKit/537.36 (KHTML, like Gecko) Chrome/95.0.4638.69 Safari/537.36 Edg/95.0.1020.53" etag="NmfhIvda2PYi5lNy8jWw" version="15.8.3" type="github">
  <diagram id="1yk5y5bVGBsEiSMlYEYK" name="Page-1">
    <mxGraphModel dx="990" dy="619" grid="1" gridSize="10" guides="1" tooltips="1" connect="1" arrows="1" fold="1" page="1" pageScale="1" pageWidth="850" pageHeight="1100" math="1" shadow="0">
      <root>
        <mxCell id="0" />
        <mxCell id="1" parent="0" />
        <mxCell id="DByacIs0TyudiqMqUtIJ-10" style="edgeStyle=orthogonalEdgeStyle;rounded=0;orthogonalLoop=1;jettySize=auto;html=1;labelBackgroundColor=default;fontSize=15;fontColor=default;strokeColor=default;" parent="1" source="DByacIs0TyudiqMqUtIJ-1" target="DByacIs0TyudiqMqUtIJ-12" edge="1">
          <mxGeometry relative="1" as="geometry">
            <mxPoint x="670" y="180" as="targetPoint" />
          </mxGeometry>
        </mxCell>
        <mxCell id="DByacIs0TyudiqMqUtIJ-11" value="&amp;nbsp; represented by&amp;nbsp;&amp;nbsp;" style="edgeLabel;html=1;align=center;verticalAlign=middle;resizable=0;points=[];fontSize=15;fontColor=default;labelBackgroundColor=default;labelBorderColor=default;" parent="DByacIs0TyudiqMqUtIJ-10" vertex="1" connectable="0">
          <mxGeometry x="0.2807" y="1" relative="1" as="geometry">
            <mxPoint x="-57" y="1" as="offset" />
          </mxGeometry>
        </mxCell>
        <mxCell id="DByacIs0TyudiqMqUtIJ-15" value="" style="edgeStyle=orthogonalEdgeStyle;rounded=0;orthogonalLoop=1;jettySize=auto;html=1;labelBackgroundColor=default;fontSize=15;fontColor=default;strokeColor=default;" parent="1" source="DByacIs0TyudiqMqUtIJ-1" target="DByacIs0TyudiqMqUtIJ-14" edge="1">
          <mxGeometry relative="1" as="geometry" />
        </mxCell>
        <mxCell id="DByacIs0TyudiqMqUtIJ-1" value="&lt;font style=&quot;font-size: 20px&quot;&gt;&lt;b&gt;Molecular Library&lt;/b&gt;&lt;/font&gt;" style="rounded=0;whiteSpace=wrap;html=1;fillColor=default;strokeColor=default;fontColor=default;" parent="1" vertex="1">
          <mxGeometry x="290" y="110" width="220" height="40" as="geometry" />
        </mxCell>
        <mxCell id="DByacIs0TyudiqMqUtIJ-5" style="edgeStyle=orthogonalEdgeStyle;rounded=0;orthogonalLoop=1;jettySize=auto;html=1;fontSize=15;fontColor=default;strokeColor=default;labelBackgroundColor=default;" parent="1" source="DByacIs0TyudiqMqUtIJ-4" target="DByacIs0TyudiqMqUtIJ-1" edge="1">
          <mxGeometry relative="1" as="geometry" />
        </mxCell>
        <mxCell id="DByacIs0TyudiqMqUtIJ-6" value="&amp;nbsp; Deterministic method&amp;nbsp;&amp;nbsp;" style="edgeLabel;html=1;align=center;verticalAlign=middle;resizable=0;points=[];fontSize=15;fontColor=default;labelBorderColor=default;labelBackgroundColor=default;" parent="DByacIs0TyudiqMqUtIJ-5" vertex="1" connectable="0">
          <mxGeometry x="-0.3276" y="2" relative="1" as="geometry">
            <mxPoint as="offset" />
          </mxGeometry>
        </mxCell>
        <mxCell id="DByacIs0TyudiqMqUtIJ-4" value="Well known analysis, Knowledge" style="rounded=0;whiteSpace=wrap;html=1;fontSize=15;fontColor=default;strokeColor=default;fillColor=default;" parent="1" vertex="1">
          <mxGeometry x="40" y="20" width="120" height="60" as="geometry" />
        </mxCell>
        <mxCell id="DByacIs0TyudiqMqUtIJ-8" style="edgeStyle=orthogonalEdgeStyle;rounded=0;orthogonalLoop=1;jettySize=auto;html=1;entryX=0.5;entryY=0;entryDx=0;entryDy=0;labelBackgroundColor=default;fontSize=15;fontColor=default;strokeColor=default;" parent="1" source="DByacIs0TyudiqMqUtIJ-7" target="DByacIs0TyudiqMqUtIJ-1" edge="1">
          <mxGeometry relative="1" as="geometry" />
        </mxCell>
        <mxCell id="DByacIs0TyudiqMqUtIJ-9" value="&amp;nbsp; Stochastic method&amp;nbsp;&amp;nbsp;" style="edgeLabel;html=1;align=center;verticalAlign=middle;resizable=0;points=[];fontSize=15;fontColor=default;labelBackgroundColor=default;labelBorderColor=default;" parent="DByacIs0TyudiqMqUtIJ-8" vertex="1" connectable="0">
          <mxGeometry x="-0.3984" relative="1" as="geometry">
            <mxPoint x="-38" as="offset" />
          </mxGeometry>
        </mxCell>
        <mxCell id="DByacIs0TyudiqMqUtIJ-7" value="Monte Carlo techniques" style="rounded=0;whiteSpace=wrap;html=1;fontSize=15;fontColor=default;strokeColor=default;fillColor=default;" parent="1" vertex="1">
          <mxGeometry x="640" y="20" width="120" height="60" as="geometry" />
        </mxCell>
        <mxCell id="DByacIs0TyudiqMqUtIJ-12" value="Pure component&lt;br&gt;SOL&lt;br&gt;MTHS" style="rounded=0;whiteSpace=wrap;html=1;labelBackgroundColor=default;fontSize=15;fontColor=default;strokeColor=default;fillColor=default;" parent="1" vertex="1">
          <mxGeometry x="620" y="180" width="140" height="60" as="geometry" />
        </mxCell>
        <mxCell id="DByacIs0TyudiqMqUtIJ-18" style="edgeStyle=orthogonalEdgeStyle;rounded=0;orthogonalLoop=1;jettySize=auto;html=1;entryX=0.5;entryY=0;entryDx=0;entryDy=0;labelBackgroundColor=default;fontSize=15;fontColor=default;strokeColor=default;" parent="1" source="DByacIs0TyudiqMqUtIJ-13" target="DByacIs0TyudiqMqUtIJ-17" edge="1">
          <mxGeometry relative="1" as="geometry" />
        </mxCell>
        <mxCell id="DByacIs0TyudiqMqUtIJ-13" value="Experiment bulk properties $$P_{j,exp}$$" style="rounded=0;whiteSpace=wrap;html=1;labelBackgroundColor=default;fontSize=15;fontColor=default;strokeColor=default;fillColor=default;" parent="1" vertex="1">
          <mxGeometry x="10" y="240" width="190" height="80" as="geometry" />
        </mxCell>
        <mxCell id="DByacIs0TyudiqMqUtIJ-19" style="edgeStyle=orthogonalEdgeStyle;rounded=0;orthogonalLoop=1;jettySize=auto;html=1;labelBackgroundColor=default;fontSize=15;fontColor=default;strokeColor=default;" parent="1" source="DByacIs0TyudiqMqUtIJ-14" edge="1">
          <mxGeometry relative="1" as="geometry">
            <mxPoint x="260" y="360" as="targetPoint" />
            <Array as="points">
              <mxPoint x="400" y="340" />
              <mxPoint x="260" y="340" />
            </Array>
          </mxGeometry>
        </mxCell>
        <mxCell id="DByacIs0TyudiqMqUtIJ-14" value="Pure properties $$f_{i,j}^{pure}$$" style="rounded=0;whiteSpace=wrap;html=1;labelBackgroundColor=default;fontSize=15;fontColor=default;strokeColor=default;fillColor=default;" parent="1" vertex="1">
          <mxGeometry x="330" y="240" width="140" height="80" as="geometry" />
        </mxCell>
        <mxCell id="DByacIs0TyudiqMqUtIJ-23" style="edgeStyle=orthogonalEdgeStyle;rounded=0;orthogonalLoop=1;jettySize=auto;html=1;labelBackgroundColor=default;fontSize=15;fontColor=default;strokeColor=default;" parent="1" source="DByacIs0TyudiqMqUtIJ-17" target="DByacIs0TyudiqMqUtIJ-21" edge="1">
          <mxGeometry relative="1" as="geometry" />
        </mxCell>
        <mxCell id="DByacIs0TyudiqMqUtIJ-17" value="Coefficient Matrix $$\Theta_{i,j} = (P_{j,exp}-f_{i,j}^{pure}&lt;br&gt;)$$" style="rounded=0;whiteSpace=wrap;html=1;labelBackgroundColor=default;fontSize=15;fontColor=default;strokeColor=default;fillColor=default;" parent="1" vertex="1">
          <mxGeometry x="160" y="360" width="200" height="80" as="geometry" />
        </mxCell>
        <mxCell id="DByacIs0TyudiqMqUtIJ-24" style="edgeStyle=orthogonalEdgeStyle;rounded=0;orthogonalLoop=1;jettySize=auto;html=1;entryX=0.5;entryY=0;entryDx=0;entryDy=0;labelBackgroundColor=default;fontSize=15;fontColor=default;strokeColor=default;" parent="1" source="DByacIs0TyudiqMqUtIJ-20" target="DByacIs0TyudiqMqUtIJ-21" edge="1">
          <mxGeometry relative="1" as="geometry" />
        </mxCell>
        <mxCell id="DByacIs0TyudiqMqUtIJ-20" value="Lagrange Multipliers $$\lambda_1, \lambda_2 ,..., \lambda_j$$" style="rounded=0;whiteSpace=wrap;html=1;labelBackgroundColor=default;fontSize=15;fontColor=default;strokeColor=default;fillColor=default;" parent="1" vertex="1">
          <mxGeometry x="530" y="360" width="170" height="80" as="geometry" />
        </mxCell>
        <mxCell id="DByacIs0TyudiqMqUtIJ-30" style="edgeStyle=orthogonalEdgeStyle;rounded=0;orthogonalLoop=1;jettySize=auto;html=1;entryX=0.5;entryY=0;entryDx=0;entryDy=0;labelBackgroundColor=default;fontSize=15;fontColor=default;strokeColor=default;" parent="1" source="DByacIs0TyudiqMqUtIJ-21" edge="1">
          <mxGeometry relative="1" as="geometry">
            <mxPoint x="440" y="700" as="targetPoint" />
          </mxGeometry>
        </mxCell>
        <mxCell id="DByacIs0TyudiqMqUtIJ-21" value="Molar fraction distributions&amp;nbsp;&lt;br&gt;$$x_i = \dfrac{exp\left(\sum_{j=1}^{J}\left(-\lambda_j\Theta_{i,j}\right)\right)}{\sum_{i=1}^N\left(exp\left(\sum_{j=1}^{J}\left(-\lambda_j\Theta_{i,j}\right)\right)\right)}$$" style="rounded=0;whiteSpace=wrap;html=1;labelBackgroundColor=default;fontSize=15;fontColor=default;strokeColor=default;fillColor=default;" parent="1" vertex="1">
          <mxGeometry x="280" y="520" width="320" height="130" as="geometry" />
        </mxCell>
        <mxCell id="DByacIs0TyudiqMqUtIJ-26" value="&amp;nbsp; Shannon entropy maximization technique&amp;nbsp;&amp;nbsp;" style="text;html=1;align=center;verticalAlign=middle;resizable=0;points=[];autosize=1;strokeColor=none;fillColor=none;fontSize=15;fontColor=default;labelBackgroundColor=default;labelBorderColor=default;" parent="1" vertex="1">
          <mxGeometry x="285" y="470" width="310" height="20" as="geometry" />
        </mxCell>
        <mxCell id="DByacIs0TyudiqMqUtIJ-27" style="edgeStyle=orthogonalEdgeStyle;rounded=0;orthogonalLoop=1;jettySize=auto;html=1;exitX=0.5;exitY=1;exitDx=0;exitDy=0;labelBackgroundColor=default;fontSize=15;fontColor=default;strokeColor=default;" parent="1" source="DByacIs0TyudiqMqUtIJ-12" target="DByacIs0TyudiqMqUtIJ-12" edge="1">
          <mxGeometry relative="1" as="geometry" />
        </mxCell>
        <mxCell id="DByacIs0TyudiqMqUtIJ-35" style="edgeStyle=orthogonalEdgeStyle;rounded=0;orthogonalLoop=1;jettySize=auto;html=1;entryX=1;entryY=0.5;entryDx=0;entryDy=0;labelBackgroundColor=default;fontSize=15;fontColor=default;strokeColor=default;exitX=1;exitY=0.5;exitDx=0;exitDy=0;" parent="1" source="DByacIs0TyudiqMqUtIJ-32" target="DByacIs0TyudiqMqUtIJ-20" edge="1">
          <mxGeometry relative="1" as="geometry" />
        </mxCell>
        <mxCell id="DByacIs0TyudiqMqUtIJ-36" value="&amp;nbsp; Adjust the multiplier&amp;nbsp;&amp;nbsp;" style="edgeLabel;html=1;align=center;verticalAlign=middle;resizable=0;points=[];fontSize=15;fontColor=default;rotation=270;labelBorderColor=default;labelBackgroundColor=default;" parent="DByacIs0TyudiqMqUtIJ-35" vertex="1" connectable="0">
          <mxGeometry x="0.1787" y="3" relative="1" as="geometry">
            <mxPoint as="offset" />
          </mxGeometry>
        </mxCell>
        <mxCell id="DByacIs0TyudiqMqUtIJ-43" value="" style="edgeStyle=orthogonalEdgeStyle;rounded=0;orthogonalLoop=1;jettySize=auto;html=1;labelBackgroundColor=default;fontSize=15;fontColor=default;strokeColor=default;" parent="1" source="DByacIs0TyudiqMqUtIJ-32" edge="1">
          <mxGeometry relative="1" as="geometry">
            <mxPoint x="440" y="930.0000000000002" as="targetPoint" />
          </mxGeometry>
        </mxCell>
        <mxCell id="DByacIs0TyudiqMqUtIJ-32" value="&lt;span&gt;&amp;nbsp;$$\sum_{i=1}^N\left(x_i.\Theta_{i,j}\right)=0$$&lt;/span&gt;" style="rhombus;whiteSpace=wrap;html=1;labelBackgroundColor=none;fontSize=15;fontColor=default;strokeColor=default;fillColor=default;" parent="1" vertex="1">
          <mxGeometry x="320" y="700" width="240" height="160" as="geometry" />
        </mxCell>
        <mxCell id="DByacIs0TyudiqMqUtIJ-33" value="&lt;span style=&quot;font-family: &amp;#34;helvetica&amp;#34; ; font-size: 15px ; font-style: normal ; font-weight: 400 ; letter-spacing: normal ; text-indent: 0px ; text-transform: none ; word-spacing: 0px&quot;&gt;Satisfied&amp;nbsp;&lt;/span&gt;&lt;b style=&quot;font-family: &amp;#34;helvetica&amp;#34; ; font-size: 15px ; font-style: normal ; letter-spacing: normal ; text-indent: 0px ; text-transform: none ; word-spacing: 0px&quot;&gt;J&lt;/b&gt;&lt;span style=&quot;font-family: &amp;#34;helvetica&amp;#34; ; font-size: 15px ; font-style: normal ; font-weight: 400 ; letter-spacing: normal ; text-indent: 0px ; text-transform: none ; word-spacing: 0px&quot;&gt;&amp;nbsp;&lt;br&gt;constrains ?&lt;/span&gt;" style="text;whiteSpace=wrap;html=1;fontSize=15;fontColor=default;align=center;" parent="1" vertex="1">
          <mxGeometry x="355" y="720" width="170" height="50" as="geometry" />
        </mxCell>
        <mxCell id="DByacIs0TyudiqMqUtIJ-37" value="&amp;nbsp; &amp;nbsp; &amp;nbsp;NO&amp;nbsp; &amp;nbsp; &amp;nbsp;" style="text;html=1;align=center;verticalAlign=middle;resizable=0;points=[];autosize=1;strokeColor=none;fillColor=none;fontSize=15;fontColor=default;rotation=0;labelBackgroundColor=default;labelBorderColor=default;" parent="1" vertex="1">
          <mxGeometry x="575" y="770" width="80" height="20" as="geometry" />
        </mxCell>
        <mxCell id="DByacIs0TyudiqMqUtIJ-44" value="FINISH" style="rounded=1;whiteSpace=wrap;html=1;labelBackgroundColor=none;labelBorderColor=none;fontSize=15;fontColor=default;strokeColor=default;fillColor=default;align=center;arcSize=50;" parent="1" vertex="1">
          <mxGeometry x="380" y="920" width="120" height="60" as="geometry" />
        </mxCell>
        <mxCell id="DByacIs0TyudiqMqUtIJ-45" value="&amp;nbsp; &amp;nbsp; &amp;nbsp;YES&amp;nbsp; &amp;nbsp; &amp;nbsp;" style="text;html=1;align=center;verticalAlign=middle;resizable=0;points=[];autosize=1;strokeColor=none;fillColor=none;fontSize=15;fontColor=default;rotation=0;labelBackgroundColor=default;labelBorderColor=default;" parent="1" vertex="1">
          <mxGeometry x="395" y="880" width="90" height="20" as="geometry" />
        </mxCell>
      </root>
    </mxGraphModel>
  </diagram>
</mxfile>
